HIERARCHY
ROOT pelvis
{
	OFFSET 0.000000 0.000000 0.000000
	CHANNELS 6 Xposition Yposition Zposition Zrotation Xrotation Yrotation
	JOINT lfemur
	{
		OFFSET 11.446000 0.000000 0.000000
		CHANNELS 3 Zrotation Xrotation Yrotation
		JOINT ltibia
		{
			OFFSET 0.000000 -42.030400 0.000000
			CHANNELS 3 Zrotation Xrotation Yrotation
			JOINT lfoot
			{
				OFFSET 0.000000 -39.930200 0.000000
				CHANNELS 3 Zrotation Xrotation Yrotation
				JOINT ltoes
				{
					OFFSET 0.000000 0.000000 11.775800
					CHANNELS 3 Zrotation Xrotation Yrotation
					End Site
					{
					    OFFSET 0.000000 0.000000 5.000000
					}
				}
			}
		}
	}
	JOINT rfemur
	{
		OFFSET -11.446000 0.000000 0.000000
		CHANNELS 3 Zrotation Xrotation Yrotation
		JOINT rtibia
		{
			OFFSET 0.000000 -42.030400 0.000000
			CHANNELS 3 Zrotation Xrotation Yrotation
			JOINT rfoot
			{
				OFFSET 0.000000 -39.930200 0.000000
				CHANNELS 3 Zrotation Xrotation Yrotation
				JOINT rtoes
				{
					OFFSET 0.000000 0.000000 11.775800
					CHANNELS 3 Zrotation Xrotation Yrotation
					End Site
					{
					    OFFSET 0.000000 0.000000 5.000000
					}
				}
			}
		}
	}
	JOINT thorax
	{
		OFFSET 0.000000 11.255600 -5.000000
		CHANNELS 3 Zrotation Xrotation Yrotation
		JOINT head
		{
			OFFSET 0.000000 43.799300 0.000000
			CHANNELS 3 Zrotation Xrotation Yrotation
			End Site
			{
			    OFFSET 0.000000 5.000000 0.000000
			}
		}
		JOINT lclavicle
		{
			OFFSET 0.000000 39.863000 0.000000
			CHANNELS 3 Zrotation Xrotation Yrotation
			JOINT lhumerus
			{
				OFFSET 17.380600 4.958300 0.000000
				CHANNELS 3 Zrotation Xrotation Yrotation
				JOINT lradius
				{
					OFFSET 0.000000 -27.561300 0.000000
					CHANNELS 3 Zrotation Xrotation Yrotation
					JOINT lhand
					{
						OFFSET 0.000000 -26.933000 0.000000
						CHANNELS 3 Zrotation Xrotation Yrotation
						End Site
						{
						    OFFSET 0.000000 -5.000000 0.000000
						}
					}
				}
			}
		}
		JOINT rclavicle
		{
			OFFSET 0.000000 39.863000 0.000000
			CHANNELS 3 Zrotation Xrotation Yrotation
			JOINT rhumerus
			{
				OFFSET -17.380600 4.958300 0.000000
				CHANNELS 3 Zrotation Xrotation Yrotation
				JOINT rradius
				{
					OFFSET 0.000000 -27.561300 0.000000
					CHANNELS 3 Zrotation Xrotation Yrotation
					JOINT rhand
					{
						OFFSET 0.000000 -26.933000 0.000000
						CHANNELS 3 Zrotation Xrotation Yrotation
						End Site
						{
						    OFFSET 0.000000 -5.000000 0.000000
						}
					}
				}
			}
		}
	}
}
MOTION
Frames:	19
Frame Time:	0.0333333
6.677200 44.253600 7.791800 76.092379 -17.926916 -93.529612 -35.955468 -74.062734 -17.339360 -180.000037 52.822257 -180.000037 0.000000 6.964242 1.366698 -0.000000 -0.909718 -0.000000 -36.659053 -76.662319 -20.266431 180.000037 45.815561 -180.000037 0.000000 7.416958 0.931837 -0.000000 -29.517533 0.000000 -17.954664 35.618651 -0.037987 4.951359 44.803510 -0.888674 -7.812774 -0.000000 0.866929 115.937703 -75.991181 89.101535 180.000031 -73.743766 117.173806 22.691066 -6.692299 0.000000 -2.824019 -0.000000 3.184788 155.657663 -86.612495 -176.038496 -180.000035 -74.697306 -137.758762 -8.206164 -0.708170 0.000000 
5.642800 44.340500 7.186700 77.509730 -18.304637 -93.165970 -34.693199 -73.856866 -17.003499 180.000037 53.961205 -180.000037 0.000000 6.437243 1.794225 -0.000000 -0.910872 -0.000000 -35.215228 -76.804831 -20.016922 -180.000037 47.414591 180.000037 0.000000 6.240797 1.798990 -0.000000 -29.538358 -0.000000 -18.685562 35.651486 -0.547969 3.632879 42.962931 -0.960716 -8.464262 0.000000 2.031692 118.125260 -75.273881 90.750171 180.000025 -71.687925 121.931158 20.523588 -9.505777 0.000000 -2.443589 -0.000000 1.894197 121.732018 -85.653792 150.468288 180.000027 -72.738636 -138.725197 -6.425225 -1.310807 -0.000000 
4.764300 44.376200 6.593700 78.157032 -18.405206 -93.321124 -31.251642 -73.395546 -14.350584 180.000037 54.818640 -180.000037 -0.000000 5.930400 1.333403 -0.000000 -0.896753 -0.000000 -30.913226 -76.694705 -16.961358 -180.000037 48.999769 180.000037 0.000000 6.305405 2.048776 -0.000000 -29.542961 -0.000000 -19.300059 35.785621 -0.681460 2.470180 42.218717 -1.243691 -8.333309 -0.000000 2.855574 115.187145 -74.924988 90.046383 -180.000037 -64.087878 158.837331 -2.243929 -11.850883 -0.000000 -1.937416 -0.000000 2.100693 115.568438 -85.349423 145.387401 -180.000034 -71.432440 -139.225679 -5.425767 -1.646410 -0.000000 
4.176200 44.388500 6.082200 78.518620 -17.772505 -93.236827 -28.612162 -73.165252 -12.611781 180.000037 55.134468 180.000037 0.000000 5.655570 0.843907 0.000000 -0.900662 -0.000000 -26.846540 -76.269436 -14.609030 180.000037 50.386680 180.000037 0.000000 6.263401 1.900202 -0.000000 -29.544621 -0.000000 -18.916752 35.811857 -1.099968 1.543518 42.036188 -1.230932 -8.640324 -0.000000 3.132038 112.625733 -74.591920 87.783220 -180.000037 -62.965318 160.349138 -3.601998 -12.574255 -0.000000 -1.017985 -0.000000 2.798874 109.416460 -85.582366 140.747914 180.000037 -70.748261 -141.183015 -4.702950 -1.891902 -0.000000 
3.760300 44.388500 5.714000 78.681248 -17.243229 -92.989501 -27.563416 -72.879834 -11.683450 -180.000037 55.522915 -180.000037 0.000000 5.388326 1.487916 -0.000000 -0.901341 -0.000000 -24.924689 -75.682827 -13.924000 -180.000037 51.714687 -180.000037 -0.000000 7.170885 2.090070 -0.000000 -29.517533 -0.000000 -18.487182 35.891952 -1.346503 1.975419 41.965956 -1.609919 -8.473022 0.000000 2.985607 109.415904 -74.443866 84.742885 -180.000037 -62.200703 159.530595 -3.353874 -12.674440 -0.000000 -0.587469 -0.000000 3.410832 102.562801 -86.022457 134.458428 180.000026 -70.161462 -140.401526 -4.815688 -1.852889 -0.000000 
3.519100 44.376400 5.342800 79.037070 -16.638974 -92.712350 -26.654187 -73.018532 -10.758349 -180.000037 55.932521 -180.000037 -0.000000 5.256124 1.527100 -0.000000 -0.895831 -0.000000 -23.185127 -75.482360 -13.304022 -180.000037 52.603842 180.000037 0.000000 7.541115 2.424309 -0.000000 -29.517533 -0.000000 -18.016280 35.500716 -1.412782 2.603595 42.008680 -2.790635 -7.838592 0.000000 2.711164 104.834886 -73.972487 80.386843 -180.000037 -61.286439 159.089312 -2.770930 -12.440805 -0.000000 -0.004552 -0.000000 3.704987 93.829161 -86.201144 126.432797 -180.000022 -69.785618 -139.877526 -4.871097 -1.830384 -0.000000 
3.424700 44.355700 5.149900 79.720591 -15.893252 -92.338634 -27.350303 -73.553596 -11.047810 -180.000037 56.460522 180.000037 0.000000 5.383467 1.672488 -0.000000 -0.882327 -0.000000 -22.963745 -75.586177 -14.149147 -180.000037 53.562240 -180.000037 0.000000 7.424038 2.915930 0.000000 -29.517533 -0.000000 -16.898878 34.901182 -0.751819 -30.593751 48.381850 44.704436 -7.278924 -0.000000 2.112607 99.880499 -74.212277 75.898710 -180.000034 -60.200027 159.586628 -2.260415 -12.713330 -0.000000 1.363770 0.000000 1.997694 91.809997 -85.304920 125.999433 180.000032 -69.993256 -140.077382 -4.492578 -1.956715 -0.000000 
3.331500 44.337200 4.992600 80.272396 -14.478029 -91.968587 -27.482212 -73.998009 -11.306714 -180.000037 57.149839 -180.000037 -0.000000 5.638543 1.679356 -0.000000 -0.865180 -0.000000 -21.686725 -75.414134 -14.293395 -180.000037 55.097107 -180.000037 0.000000 7.515706 2.285529 -0.000000 -29.517533 0.000000 -15.233483 34.395720 -1.211175 -30.241167 48.563907 44.674594 -5.793434 0.000000 2.079463 93.550528 -73.674292 70.635874 -180.000034 -58.802621 158.614402 -1.800559 -12.419437 0.000000 3.025704 0.000000 2.119576 94.701026 -85.135548 130.248604 180.000031 -70.462230 -139.709042 -4.684678 -1.894011 0.000000 
3.719100 44.286200 5.242700 83.106897 -11.642561 -89.359316 -41.174349 -76.127172 -26.253974 -180.000037 57.231159 -180.000037 0.000000 5.678186 2.854412 0.000000 -0.865652 -0.000000 -31.407345 -76.261488 -26.700288 -180.000037 56.320435 -180.000037 0.000000 6.730996 3.185117 -0.000000 -29.517533 -0.000000 -10.416114 32.286090 -3.823406 -29.553221 48.814584 44.705319 -3.847044 -0.000000 1.998633 86.223051 -73.914629 65.280787 180.000033 -57.507885 158.599896 -2.621240 -12.485150 0.000000 4.477093 0.000000 1.357767 103.051245 -84.835706 139.844554 -180.000030 -71.016347 -140.887493 -4.366088 -2.002632 0.000000 
3.840900 44.277200 5.375300 83.799349 -9.231001 -88.630388 -45.628232 -76.524917 -31.381658 -180.000037 57.942455 180.000037 0.000000 5.275237 3.300183 -0.000000 -0.841772 0.000000 -32.259185 -75.982399 -29.157360 -180.000037 58.102186 -180.000037 0.000000 6.246289 3.507616 0.000000 -29.517533 0.000000 -7.327222 31.661385 -4.823001 -29.241047 48.829934 45.199386 -2.516373 -0.000000 2.456776 81.583333 -74.143079 61.849569 -180.000035 -56.594580 159.602878 -2.981573 -12.409309 0.000000 6.392855 0.000000 1.144896 113.233196 -84.348219 151.719580 180.000021 -71.977421 -141.134204 -4.319093 -2.020958 0.000000 
3.995100 44.275600 5.620300 84.187030 -8.133480 -88.225204 -48.858552 -76.584718 -33.901122 -180.000037 58.818960 -180.000037 0.000000 5.487181 3.204036 0.000000 -0.830196 -0.000000 -34.171923 -75.941876 -30.816317 -180.000037 59.300898 180.000037 -0.000000 6.115250 3.971570 -0.000000 -29.517533 0.000000 -6.116335 31.195168 -5.154121 -28.025013 49.159930 44.429433 -2.201976 -0.000000 2.400407 82.105274 -74.313545 62.712163 180.000037 -56.348978 163.431323 -6.235995 -12.849059 0.000000 7.400931 -0.000000 0.892268 119.426303 -84.404657 158.404628 -180.000032 -72.169070 -141.849440 -4.175533 -2.068195 0.000000 
4.347200 44.305700 5.773000 84.535652 -7.828967 -88.321833 -51.532254 -77.214790 -35.404895 180.000037 59.214250 -180.000037 -0.000000 5.378477 3.003769 0.000000 -0.791142 -0.000000 -36.378564 -76.651825 -31.933865 180.000037 59.679509 -180.000037 -0.000000 5.494462 3.446405 -0.000000 -29.517533 0.000000 -6.357211 30.744255 -4.728517 -26.735940 49.280108 44.135954 -2.397056 0.000000 3.016879 85.418963 -75.784769 65.749848 -180.000031 -57.265425 167.839777 -9.190760 -13.700139 0.000000 7.112056 0.000000 0.204055 122.496730 -84.653851 160.828013 -180.000037 -72.062187 -140.782002 -5.159532 -1.734026 -0.000000 
4.816300 44.294400 5.878900 84.687241 -8.363804 -88.446777 -54.068832 -77.871551 -36.171103 -180.000037 59.142697 -180.000037 -0.000000 6.069471 2.805808 0.000000 -0.845618 -0.000000 -39.404906 -77.411008 -32.942539 180.000037 59.185386 180.000037 -0.000000 4.991479 3.237205 -0.000000 -29.517533 0.000000 -7.543395 30.498604 -4.368263 -25.625901 49.098835 43.779583 -2.226666 0.000000 3.722744 88.727759 -77.177694 69.034553 180.000037 -58.274371 169.401666 -10.756567 -13.725699 0.000000 6.794960 -0.000000 -0.438002 123.495259 -84.572853 160.957549 -180.000030 -72.024122 -140.153463 -5.635199 -1.570776 0.000000 
5.328100 44.277700 5.813300 84.492609 -8.341802 -88.836965 -54.589940 -78.704172 -36.282959 -180.000037 58.564931 180.000037 -0.000000 6.254588 2.803415 -0.000000 -0.822684 -0.000000 -38.135546 -77.957401 -30.559602 -180.000037 58.678791 -180.000037 0.000000 4.802198 2.877177 0.000000 -29.517533 -0.000000 -8.564313 30.250043 -4.552663 9.084272 42.586626 -4.102029 -1.435898 0.000000 4.376400 91.186097 -77.336256 71.499981 180.000034 -59.086065 170.032473 -11.810016 -13.958584 0.000000 6.536177 -0.000000 1.073010 129.657990 -85.530193 165.917206 -180.000034 -71.851731 -138.952499 -5.197747 -1.717509 -0.000000 
5.782100 44.287600 5.971600 84.437809 -8.692813 -88.925499 -57.158937 -78.965489 -38.348016 -180.000037 58.182154 -180.000037 0.000000 5.994757 3.091644 0.000000 -0.817988 -0.000000 -40.654241 -78.200102 -31.759023 -180.000037 58.089195 -180.000037 -0.000000 4.673422 2.845405 -0.000000 -29.517533 -0.000000 -9.052008 30.501621 -4.489924 9.774559 42.022757 -4.023029 -1.469982 -0.000000 5.361390 97.020854 -78.476123 77.035868 -180.000035 -60.027558 170.344950 -12.252854 -13.999001 0.000000 6.229682 0.000000 0.448774 134.037377 -84.656519 169.706917 -180.000036 -72.197195 -138.700127 -5.208456 -1.713930 -0.000000 
6.210200 44.310600 6.007100 84.288535 -8.882098 -88.969764 -57.984213 -79.219888 -39.320339 -180.000037 58.070330 -180.000037 0.000000 5.907930 3.528810 0.000000 -0.843460 -0.000000 -41.955000 -78.573064 -32.380599 180.000037 57.650656 -180.000037 0.000000 4.389956 2.652794 -0.000000 -29.517533 -0.000000 -9.554933 30.637221 -4.347584 10.494826 41.692179 -3.762720 -1.378435 -0.000000 6.069818 103.036448 -79.325880 82.696035 -180.000037 -60.968663 170.367351 -12.301839 -13.954736 -0.000000 6.136392 0.000000 -0.032021 137.387018 -84.149847 172.592931 180.000034 -72.504057 -139.063292 -5.546773 -1.599669 -0.000000 
6.689800 44.333000 5.956300 84.403276 -9.180772 -88.941258 -60.458574 -79.601382 -42.391287 180.000037 58.425664 -180.000037 -0.000000 6.030521 3.103687 -0.000000 -0.806220 0.000000 -44.994872 -79.339684 -35.066856 -180.000037 57.391614 -180.000037 -0.000000 4.318226 2.522163 -0.000000 -29.517533 -0.000000 -10.102344 30.639767 -4.091980 11.536068 41.047874 -4.172407 -1.301363 0.000000 6.794483 111.332448 -79.942284 90.838550 180.000036 -61.964602 171.040693 -12.647851 -13.970033 -0.000000 5.780384 -0.000000 -1.123039 138.222861 -83.174823 173.009328 180.000036 -73.125250 -140.045405 -6.731813 -1.200461 0.000000 
7.140900 44.315500 5.856800 84.346496 -9.587816 -89.025146 -61.509974 -79.889026 -44.121936 -180.000037 59.336265 -180.000037 -0.000000 5.578130 3.835281 -0.000000 -0.825951 -0.000000 -47.403599 -80.114820 -37.434473 -180.000037 57.393936 -180.000037 -0.000000 3.920592 2.241017 0.000000 -29.517533 -0.000000 -10.854538 30.605335 -3.741019 12.033656 40.637842 -4.098953 -1.595932 0.000000 7.262229 119.755324 -80.026815 98.950690 180.000036 -62.954314 172.493763 -13.169790 -14.116764 0.000000 5.209824 0.000000 -1.812829 138.530949 -82.678141 172.436493 180.000036 -73.491196 -139.472837 -7.568293 -0.917301 0.000000 
7.569300 44.294000 5.829100 84.043544 -10.100798 -89.126531 -61.394128 -80.073962 -44.584076 -180.000037 60.562844 -180.000037 0.000000 5.240089 3.873206 0.000000 -0.839645 -0.000000 -49.021283 -80.587977 -39.135483 -180.000037 57.729025 -180.000037 0.000000 3.314357 2.472601 -0.000000 -29.517533 -0.000000 -11.535887 30.940490 -3.572472 12.414912 39.833584 -4.542394 -1.648388 0.000000 7.726498 125.925578 -79.532979 104.799294 180.000035 -63.804097 172.367201 -12.654795 -13.864697 -0.000000 4.650986 0.000000 -2.515909 138.714955 -81.798490 171.817439 180.000029 -73.954885 -139.529052 -7.752781 -0.853918 0.000000 
